ffmpeg version 3.4.8-0ubuntu0.2 Copyright (c) 2000-2020 the FFmpeg developers
  built with gcc 7 (Ubuntu 7.5.0-3ubuntu1~18.04)
  configuration: --prefix=/usr --extra-version=0ubuntu0.2 --toolchain=hardened --libdir=/usr/lib/x86_64-linux-gnu --incdir=/usr/include/x86_64-linux-gnu --enable-gpl --disable-stripping --enable-avresample --enable-avisynth --enable-gnutls --enable-ladspa --enable-libass --enable-libbluray --enable-libbs2b --enable-libcaca --enable-libcdio --enable-libflite --enable-libfontconfig --enable-libfreetype --enable-libfribidi --enable-libgme --enable-libgsm --enable-libmp3lame --enable-libmysofa --enable-libopenjpeg --enable-libopenmpt --enable-libopus --enable-libpulse --enable-librubberband --enable-librsvg --enable-libshine --enable-libsnappy --enable-libsoxr --enable-libspeex --enable-libssh --enable-libtheora --enable-libtwolame --enable-libvorbis --enable-libvpx --enable-libwavpack --enable-libwebp --enable-libx265 --enable-libxml2 --enable-libxvid --enable-libzmq --enable-libzvbi --enable-omx --enable-openal --enable-opengl --enable-sdl2 --enable-libdc1394 --enable-libdrm --enable-libiec61883 --enable-chromaprint --enable-frei0r --enable-libopencv --enable-libx264 --enable-shared
  libavutil      55. 78.100 / 55. 78.100
  libavcodec     57.107.100 / 57.107.100
  libavformat    57. 83.100 / 57. 83.100
  libavdevice    57. 10.100 / 57. 10.100
  libavfilter     6.107.100 /  6.107.100
  libavresample   3.  7.  0 /  3.  7.  0
  libswscale      4.  8.100 /  4.  8.100
  libswresample   2.  9.100 /  2.  9.100
  libpostproc    54.  7.100 / 54.  7.100
[mov,mp4,m4a,3gp,3g2,mj2 @ 0x556a0b34f4a0] wrong sample count
[mov,mp4,m4a,3gp,3g2,mj2 @ 0x556a0b34f4a0] STSC entry 16 is invalid (first=17 count=4 id=1)
[mov,mp4,m4a,3gp,3g2,mj2 @ 0x556a0b34f4a0] STSC entry 12 is invalid (first=14 count=1 id=1)
[mov,mp4,m4a,3gp,3g2,mj2 @ 0x556a0b34f4a0] STSC entry 11 is invalid (first=141 count=2 id=1)
[mov,mp4,m4a,3gp,3g2,mj2 @ 0x556a0b34f4a0] stream 1, timescale not set
[mov,mp4,m4a,3gp,3g2,mj2 @ 0x556a0b34f4a0] wrong sample count
[mov,mp4,m4a,3gp,3g2,mj2 @ 0x556a0b34f4a0] Failed to open codec in avformat_find_stream_info
Input #0, mov,mp4,m4a,3gp,3g2,mj2, from '/root/results/2020-11-30_15:05:31/nyan_cat-trimmed390_0.00100.mp4':
  Metadata:
    major_brand     : isom
    minor_version   : 512
    compatible_brands: isomiso2avc1mp41
    encoder         : Lavf58.45.100
  Duration: 00:00:00.68, start: 0.000000, bitrate: 371 kb/s
    Stream #0:0(und): Video: h264 (avc1 / 0x31637661), none, 540x360, 29.97 fps, 29.97 tbr, 30k tbn, 60k tbc
    Metadata:
      handler_name    : Core Media Video
    Stream #0:1: Audio: aac (LC) (mp4a / 0x6134706D), 44100 Hz, stereo, fltp, 124 kb/s (default)
    Metadata:
      rotate          : 0
      handler_name    : Core Media Audio
Stream mapping:
  Stream #0:0 -> #0:0 (h264 (native) -> mpeg4 (native))
  Stream #0:1 -> #0:1 (aac (native) -> mp3 (libmp3lame))
Error while opening decoder for input stream #0:0 : Invalid data found when processing input
